<?xml version="1.0" standalone="no"?>
<!DOCTYPE svg PUBLIC "-//W3C//DTD SVG 20010904//EN"
 "http://www.w3.org/TR/2001/REC-SVG-20010904/DTD/svg10.dtd">
<svg version="1.0" xmlns="http://www.w3.org/2000/svg"
 width="512.000000pt" height="512.000000pt" viewBox="0 0 512.000000 512.000000"
 preserveAspectRatio="xMidYMid meet">
<metadata>
Created by potrace 1.11, written by Peter Selinger 2001-2013
</metadata>
<g transform="translate(0.000000,512.000000) scale(0.100000,-0.100000)"
fill="#000000" stroke="none">
<path d="M675 4701 c-109 -28 -204 -128 -235 -248 -9 -36 -9 -36 -6 15 3 53 3
53 -23 47 -56 -13 -151 -67 -186 -106 -21 -23 -49 -67 -64 -98 l-26 -56 0
-1700 0 -1700 27 -50 c14 -28 46 -71 70 -94 44 -45 147 -101 184 -101 16 0 28
-14 48 -54 36 -74 106 -141 173 -166 65 -24 88 -25 186 -4 51 10 82 12 94 6
39 -21 108 -22 178 -4 l70 18 -27 18 c-24 16 -34 17 -78 6 -122 -29 -252 48
-319 189 l-26 56 -3 1907 -2 1907 21 56 c11 30 36 75 54 100 24 31 30 45 21
48 -28 11 -102 15 -131 8z"/>
<path d="M948 4478 c-29 -35 -77 -90 -105 -124 l-52 -61 99 -41 100 -41 0 132
c0 73 4 147 9 165 5 17 8 32 7 32 -2 0 -28 -28 -58 -62z"/>
<path d="M3268 4153 c-1 -153 -2 -357 -3 -453 l0 -175 -235 0 -235 0 0 -60 0
-60 235 0 235 0 3 -117 3 -118 -241 0 -240 0 0 -60 0 -60 240 0 241 0 -3 -117
-3 -118 -235 0 -235 0 0 -60 0 -60 225 -2 c124 -1 231 -2 238 -2 9 -1 12 -31
12 -116 0 -85 -3 -115 -12 -116 -7 0 -114 -1 -238 -2 l-225 -2 -3 -57 -3 -58
611 0 610 0 0 54 c0 49 -2 55 -22 58 -22 3 -23 6 -23 123 0 117 1 120 23 123
20 3 22 9 22 57 0 48 -2 54 -22 57 -22 3 -23 7 -26 121 -1 64 1 117 6 117 4 0
9 27 10 60 2 36 -2 60 -8 60 -13 0 -14 227 0 235 6 3 10 30 10 60 0 30 -4 57
-10 60 -6 4 -10 55 -10 121 0 69 4 114 10 114 6 0 10 5 10 11 0 6 16 33 35 60
l36 48 -43 3 -43 3 3 239 c2 132 1 254 -3 273 l-6 33 -344 0 -345 0 -2 -277z
m515 -1587 c81 -55 144 -103 141 -108 -6 -9 -426 -9 -538 1 l-68 6 73 53 c41
29 107 78 148 107 45 34 78 52 86 47 7 -4 78 -52 158 -106z"/>
<path d="M4496 4379 c72 -34 126 -90 163 -168 l26 -56 3 -1570 c2 -1733 6
-1623 -61 -1721 -38 -55 -109 -108 -170 -126 -40 -12 -35 -13 82 -16 148 -3
223 13 298 64 56 39 87 74 124 144 l24 45 0 1580 0 1580 -27 57 c-55 118 -161
196 -275 204 -32 2 -101 6 -153 8 l-95 5 61 -30z"/>
<path d="M2582 4383 c-1 -12 -6 -25 -12 -28 -7 -4 -10 -622 -10 -1822 0 -1651
1 -1815 16 -1809 9 3 155 6 325 6 302 0 309 0 309 20 0 19 -7 20 -212 20 -117
0 -257 3 -310 7 l-98 6 -3 1811 c-1 996 -3 1801 -5 1789z"/>
<path d="M1236 3997 c-3 -12 -6 -37 -6 -54 0 -26 5 -34 23 -37 61 -14 1049
-137 1054 -132 3 3 8 28 11 56 3 39 1 50 -10 50 -16 0 -999 127 -1039 134 -21
4 -28 0 -33 -17z"/>
<path d="M2790 3820 l0 -60 222 0 222 0 -59 60 -59 60 -163 0 -163 0 0 -60z"/>
<path d="M1237 3613 c-13 -12 -8 -103 6 -103 6 0 248 -22 537 -49 289 -27 527
-48 529 -45 2 2 6 26 9 53 l4 49 -48 6 c-43 5 -1009 96 -1025 96 -3 0 -9 -3
-12 -7z"/>
<path d="M1230 3170 l0 -56 529 -28 c290 -16 536 -26 545 -23 13 5 16 17 14
54 l-3 48 -542 30 -543 30 0 -55z"/>
<path d="M1230 2777 l0 -55 198 -6 c108 -3 353 -9 545 -12 l347 -6 0 55 0 55
-347 6 c-192 3 -437 9 -545 12 l-198 6 0 -55z"/>
<path d="M4043 2755 c0 -33 2 -45 4 -27 2 18 2 45 0 60 -2 15 -4 0 -4 -33z"/>
<path d="M4083 2755 c0 -33 2 -45 4 -27 2 18 2 45 0 60 -2 15 -4 0 -4 -33z"/>
<path d="M1615 2439 c-170 -3 -327 -7 -347 -8 l-38 -1 0 -56 0 -56 148 6 c81
3 326 9 545 12 l397 6 0 54 0 54 -197 -2 c-109 -1 -337 -5 -508 -9z"/>
<path d="M4043 2395 c0 -33 2 -45 4 -27 2 18 2 45 0 60 -2 15 -4 0 -4 -33z"/>
<path d="M4083 2395 c0 -33 2 -45 4 -27 2 18 2 45 0 60 -2 15 -4 0 -4 -33z"/>
<path d="M1763 2067 l-533 -31 0 -53 0 -53 38 0 c61 0 984 50 1020 56 30 5 32
8 32 44 0 41 -8 71 -19 69 -3 -1 -246 -15 -538 -32z"/>
<path d="M2790 2040 l0 -60 470 0 470 0 0 60 0 60 -470 0 -470 0 0 -60z"/>
<path d="M3850 2093 c8 -3 26 -13 40 -23 14 -9 46 -29 73 -44 l47 -27 0 51 0
50 -87 -1 c-49 0 -81 -3 -73 -6z"/>
<path d="M4043 2040 c0 -36 2 -50 4 -32 2 17 2 47 0 65 -2 17 -4 3 -4 -33z"/>
<path d="M4083 2040 c0 -36 2 -50 4 -32 2 17 2 47 0 65 -2 17 -4 3 -4 -33z"/>
<path d="M2795 1738 c-4 -9 -5 -37 -3 -64 l3 -49 38 1 c20 0 231 1 467 2 l430
2 0 55 0 55 -412 0 c-227 0 -437 3 -465 6 -42 5 -54 4 -58 -8z"/>
<path d="M1765 1690 c-275 -27 -508 -49 -517 -49 -14 -1 -18 -10 -18 -43 0
-24 4 -49 8 -56 7 -10 119 -2 542 38 293 27 535 50 537 50 5 0 3 64 -3 88 -4
14 -13 22 -28 21 -11 -1 -246 -23 -521 -49z"/>
<path d="M2790 1330 l0 -60 470 0 470 0 0 60 0 60 -470 0 -470 0 0 -60z"/>
<path d="M1740 1310 c-278 -38 -506 -69 -507 -69 -2 -1 -3 -18 -2 -38 1 -77
-43 -77 552 1 l537 70 0 30 c0 60 -10 76 -44 75 -17 -1 -258 -32 -536 -69z"/>
</g>
</svg>
